<svg width="11" height="9" viewBox="0 0 11 9" fill="none" xmlns="http://www.w3.org/2000/svg">
    <path
        d="M7.37645 6.60139L0.453545 1.61684C0.277627 1.49018 0.175674 1.32226 0.147687 1.11308C0.1197 0.903909 0.172979 0.708045 0.307525 0.525492C0.442071 0.342939 0.614355 0.232758 0.824374 0.19495C1.03439 0.157142 1.22736 0.201569 1.40328 0.328232L8.32618 5.31278L7.91003 2.20243C7.88082 1.98416 7.93212 1.79098 8.06393 1.6229C8.19574 1.45481 8.36604 1.34731 8.57484 1.30041C8.79399 1.26095 8.99092 1.30001 9.16562 1.41758C9.34032 1.53515 9.44228 1.70307 9.47148 1.92134L10.1395 6.91426C10.1541 7.0234 10.1467 7.12486 10.1171 7.21866C10.0876 7.31245 10.0412 7.40231 9.97786 7.48821C9.91454 7.57412 9.84225 7.64535 9.76098 7.70189C9.6797 7.75843 9.58428 7.79656 9.4747 7.81629L4.46162 8.71876C4.24247 8.75821 4.0495 8.71378 3.88271 8.58547C3.71592 8.45717 3.61793 8.28388 3.58873 8.06561C3.56987 7.85479 3.62117 7.66161 3.74263 7.48607C3.86408 7.31053 4.03439 7.20303 4.25354 7.16358L7.37645 6.60139Z"
        fill="#ECEDEE" />
</svg>