<svg width="15" height="15" viewBox="0 0 15 15" fill="none" xmlns="http://www.w3.org/2000/svg">
    <path
        d="M3.14583 14.1041C2.52083 14.1041 1.93403 13.9618 1.38542 13.677C0.836806 13.3923 0.375 13.0069 0 12.5208C0.430556 12.493 0.798611 12.3333 1.10417 12.0416C1.40972 11.75 1.5625 11.3888 1.5625 10.9583C1.5625 10.2916 1.79269 9.7326 2.25306 9.28121C2.71344 8.82982 3.27247 8.60413 3.93015 8.60413C4.58783 8.60413 5.14236 8.833 5.59375 9.29075C6.04514 9.74852 6.27083 10.3044 6.27083 10.9583C6.27083 11.8333 5.96875 12.5763 5.36458 13.1875C4.76042 13.7986 4.02083 14.1041 3.14583 14.1041ZM3.14583 12.7083C3.62708 12.7083 4.03906 12.5369 4.38177 12.1942C4.72448 11.8515 4.89583 11.4395 4.89583 10.9583C4.89583 10.6944 4.80208 10.4687 4.61458 10.2812C4.42708 10.0937 4.20139 9.99996 3.9375 9.99996C3.67361 9.99996 3.44792 10.0937 3.26042 10.2812C3.07292 10.4687 2.97917 10.6944 2.97917 10.9583C2.97917 11.2638 2.94444 11.559 2.875 11.8437C2.80556 12.1284 2.67361 12.3819 2.47917 12.6041C2.59028 12.6319 2.70139 12.6562 2.8125 12.677C2.92361 12.6979 3.03472 12.7083 3.14583 12.7083ZM8.0625 9.16663L5.9375 7.04163L12.5833 0.395793C12.7778 0.201348 13.0139 0.104126 13.2917 0.104126C13.5694 0.104126 13.8056 0.201348 14 0.395793L14.7083 1.10413C14.9028 1.30489 15 1.5391 15 1.80677C15 2.07445 14.9028 2.30552 14.7083 2.49996L8.0625 9.16663Z"
        fill="#ECEDEE" />
</svg>