<svg width="1150" height="164" viewBox="0 0 1150 164" fill="none" xmlns="http://www.w3.org/2000/svg">
<g clip-path="url(#clip0_755_292)">
<path d="M85.5917 0.5C115.84 0.5 141.781 12.8257 158.055 33.7632L131.507 57.0681C121.537 44.6309 103.917 35.0874 87.1202 35.0874C70.7271 35.0874 58.3644 40.9073 50.102 49.7004C41.8462 58.4865 37.713 70.2101 37.713 81.9762C37.713 93.6314 41.8469 105.299 50.1026 114.057C58.3647 122.821 70.7271 128.641 87.1202 128.641C108.471 128.641 122.07 118.218 131.51 106.225L158.047 129.558C141.315 150.115 115.387 163.514 85.3882 163.514C46.276 163.514 0.514648 135.737 0.514648 82.0143C0.514648 28.2926 46.4781 0.5 85.5917 0.5ZM87.1108 65.5712C92.1266 65.5712 96.1936 67.2341 99.0068 70.1194C101.821 73.006 103.424 77.1609 103.424 82.224C103.424 87.2865 101.822 91.3822 99.0102 94.2108C96.1989 97.0391 92.1315 98.6481 87.1108 98.6481C81.9762 98.6481 77.8532 97.0351 75.0151 94.2056C72.1771 91.3762 70.5749 87.2815 70.5749 82.224C70.5749 77.1661 72.1798 73.0121 75.022 70.1246C77.8632 67.2382 81.9859 65.5712 87.1108 65.5712Z" stroke="url(#paint0_linear_755_292)"/>
<path d="M280.943 66.8905V96.8612H221.179H220.679V97.3612V158.416H184.768V5.51709H220.679V66.3527V66.8524L221.178 66.8527L280.943 66.8905ZM305.959 5.55519H341.643V158.454H305.959V5.55519Z" stroke="url(#paint1_linear_755_292)"/>
<path d="M375.39 100.625V70.8456H460.699C467.79 70.8456 473.157 68.6675 476.757 65.3531C480.355 62.0406 482.158 57.6182 482.158 53.1928C482.158 48.7674 480.355 44.3449 476.757 41.0324C473.157 37.718 467.79 35.5399 460.699 35.5399H375.39V5.54102H467.03C483.714 5.54102 496.132 11.4818 504.381 20.3819C512.637 29.2896 516.748 41.1944 516.748 53.1642C516.748 71.6759 506.585 90.3681 486.294 97.5426L485.643 97.7727L486.065 98.3193L532.387 158.407H487.597L447.352 100.806L447.203 100.592L446.942 100.592L375.39 100.625Z" stroke="url(#paint2_linear_755_292)"/>
<path d="M639.519 34.6585H639.019V34.6753C627.593 34.7854 615.307 38.666 605.823 46.4101C596.187 54.2775 589.454 66.1238 589.454 82C589.454 97.8766 596.187 109.668 605.824 117.479C615.448 125.28 627.954 129.103 639.519 129.103C650.979 129.103 663.429 125.28 673.024 117.479C682.631 109.667 689.362 97.8765 689.362 82C689.362 50.198 662.403 34.6585 639.519 34.6585ZM639.519 163.5C619.535 163.5 597.869 156.773 581.209 143.222C564.561 129.682 552.899 109.321 552.899 82C552.899 54.6787 564.561 34.3182 581.209 20.7777C597.869 7.22719 619.535 0.5 639.519 0.5C659.392 0.5 681.002 7.22687 697.635 20.7775C714.255 34.318 725.917 54.6787 725.917 82C725.917 109.321 714.255 129.682 697.635 143.223C681.002 156.773 659.392 163.5 639.519 163.5Z" stroke="url(#paint3_linear_755_292)"/>
<path d="M791.637 67.7249V158.454H755.726L755.74 5.55518H791.862L879.718 158.454H844.175L792.572 67.4782L791.637 65.83V67.7249ZM910.747 5.55518H946.867V158.454H910.956V67.7106V65.8206L910.021 67.4634L883.801 113.552L865.84 84.4055L910.747 5.55518Z" stroke="url(#paint4_linear_755_292)"/>
<path d="M1063.1 34.6585H1062.6V34.6753C1051.17 34.7854 1038.89 38.6661 1029.41 46.4102C1019.77 54.2775 1013.04 66.1238 1013.04 82C1013.04 97.8766 1019.77 109.668 1029.41 117.479C1039.03 125.28 1051.54 129.103 1063.1 129.103C1074.56 129.103 1087.01 125.28 1096.61 117.479C1106.21 109.667 1112.95 97.8765 1112.95 82C1112.95 66.124 1106.21 54.2743 1096.61 46.4035C1087.01 38.5428 1074.56 34.6585 1063.1 34.6585ZM1063.1 163.5C1043.12 163.5 1021.45 156.773 1004.79 143.222C988.145 129.682 976.483 109.321 976.483 82C976.483 54.6787 988.145 34.3182 1004.79 20.7777C1021.45 7.22718 1043.12 0.5 1063.1 0.5C1082.97 0.5 1104.58 7.22687 1121.22 20.7775C1137.84 34.318 1149.5 54.6787 1149.5 82C1149.5 109.321 1137.84 129.682 1121.22 143.223C1104.58 156.773 1082.97 163.5 1063.1 163.5Z" stroke="url(#paint5_linear_755_292)"/>
</g>
<defs>
<linearGradient id="paint0_linear_755_292" x1="79.376" y1="0" x2="79.376" y2="164.014" gradientUnits="userSpaceOnUse">
<stop stop-color="white"/>
<stop offset="1" stop-color="white" stop-opacity="0"/>
</linearGradient>
<linearGradient id="paint1_linear_755_292" x1="263.205" y1="5.01709" x2="263.205" y2="158.954" gradientUnits="userSpaceOnUse">
<stop stop-color="white"/>
<stop offset="1" stop-color="white" stop-opacity="0"/>
</linearGradient>
<linearGradient id="paint2_linear_755_292" x1="454.147" y1="5.04102" x2="454.147" y2="158.907" gradientUnits="userSpaceOnUse">
<stop stop-color="white"/>
<stop offset="1" stop-color="white" stop-opacity="0"/>
</linearGradient>
<linearGradient id="paint3_linear_755_292" x1="639.408" y1="0" x2="639.408" y2="164" gradientUnits="userSpaceOnUse">
<stop stop-color="white"/>
<stop offset="1" stop-color="white" stop-opacity="0"/>
</linearGradient>
<linearGradient id="paint4_linear_755_292" x1="851.296" y1="5.05518" x2="851.296" y2="158.954" gradientUnits="userSpaceOnUse">
<stop stop-color="white"/>
<stop offset="1" stop-color="white" stop-opacity="0"/>
</linearGradient>
<linearGradient id="paint5_linear_755_292" x1="1062.99" y1="0" x2="1062.99" y2="164" gradientUnits="userSpaceOnUse">
<stop stop-color="white"/>
<stop offset="1" stop-color="white" stop-opacity="0"/>
</linearGradient>
<clipPath id="clip0_755_292">
<rect width="1150" height="164" fill="white"/>
</clipPath>
</defs>
</svg>
