<svg width="18" height="14" viewBox="0 0 18 14" fill="none" xmlns="http://www.w3.org/2000/svg">
    <path
        d="M0.75 14C0.5375 14 0.359375 13.9285 0.215625 13.7856C0.071875 13.6427 0 13.4656 0 13.2544C0 13.0431 0.071875 12.8646 0.215625 12.7188C0.359375 12.5729 0.5375 12.5 0.75 12.5H17.25C17.4625 12.5 17.6406 12.5715 17.7844 12.7144C17.9281 12.8573 18 13.0344 18 13.2456C18 13.4569 17.9281 13.6354 17.7844 13.7812C17.6406 13.9271 17.4625 14 17.25 14H0.75ZM2.5 11.5C2.0875 11.5 1.73438 11.3531 1.44063 11.0594C1.14688 10.7656 1 10.4125 1 10V1.5C1 1.0875 1.14688 0.734376 1.44063 0.440626C1.73438 0.146876 2.0875 0 2.5 0H15.5C15.9125 0 16.2656 0.146876 16.5594 0.440626C16.8531 0.734376 17 1.0875 17 1.5V10C17 10.4125 16.8531 10.7656 16.5594 11.0594C16.2656 11.3531 15.9125 11.5 15.5 11.5H2.5ZM2.5 10H15.5V1.5H2.5V10Z"
        fill="#ECEDEE" />
</svg>