<svg width="61" height="25" viewBox="0 0 61 25" fill="none" xmlns="http://www.w3.org/2000/svg">
<rect x="0.5" width="60" height="25" rx="12.5" fill="white"/>
<path d="M11.7784 18V6.36364H18.9943V7.875H13.5341V11.4205H18.4773V12.9261H13.5341V18H11.7784ZM20.6832 18H18.8196L23.0071 6.36364H25.0355L29.223 18H27.3594L24.0696 8.47727H23.9787L20.6832 18ZM20.9957 13.4432H27.0412V14.9205H20.9957V13.4432ZM34.6349 14.2273H36.3622L37.5781 15.8125L38.152 16.517L40.0895 19.0455H38.294L36.9986 17.358L36.5554 16.7443L34.6349 14.2273ZM40.4645 12.1818C40.4645 13.4242 40.2372 14.4924 39.7827 15.3864C39.3281 16.2765 38.705 16.9621 37.9134 17.4432C37.1255 17.9205 36.2296 18.1591 35.2259 18.1591C34.2183 18.1591 33.3187 17.9205 32.527 17.4432C31.7391 16.9621 31.1179 16.2746 30.6634 15.3807C30.2088 14.4867 29.9815 13.4205 29.9815 12.1818C29.9815 10.9394 30.2088 9.87311 30.6634 8.98295C31.1179 8.08901 31.7391 7.40341 32.527 6.92614C33.3187 6.44508 34.2183 6.20455 35.2259 6.20455C36.2296 6.20455 37.1255 6.44508 37.9134 6.92614C38.705 7.40341 39.3281 8.08901 39.7827 8.98295C40.2372 9.87311 40.4645 10.9394 40.4645 12.1818ZM38.7259 12.1818C38.7259 11.2348 38.5724 10.4375 38.2656 9.78977C37.9626 9.13826 37.5459 8.64583 37.0156 8.3125C36.4891 7.97538 35.8925 7.80682 35.2259 7.80682C34.5554 7.80682 33.9569 7.97538 33.4304 8.3125C32.9039 8.64583 32.4872 9.13826 32.1804 9.78977C31.8774 10.4375 31.7259 11.2348 31.7259 12.1818C31.7259 13.1288 31.8774 13.928 32.1804 14.5795C32.4872 15.2273 32.9039 15.7197 33.4304 16.0568C33.9569 16.3902 34.5554 16.5568 35.2259 16.5568C35.8925 16.5568 36.4891 16.3902 37.0156 16.0568C37.5459 15.7197 37.9626 15.2273 38.2656 14.5795C38.5724 13.928 38.7259 13.1288 38.7259 12.1818ZM49.0568 11.4034L47.517 11.6761C47.4527 11.4792 47.3504 11.2917 47.2102 11.1136C47.0739 10.9356 46.8883 10.7898 46.6534 10.6761C46.4186 10.5625 46.125 10.5057 45.7727 10.5057C45.2917 10.5057 44.8902 10.6136 44.5682 10.8295C44.2462 11.0417 44.0852 11.3163 44.0852 11.6534C44.0852 11.9451 44.1932 12.1799 44.4091 12.358C44.625 12.536 44.9735 12.6818 45.4545 12.7955L46.8409 13.1136C47.6439 13.2992 48.2424 13.5852 48.6364 13.9716C49.0303 14.358 49.2273 14.8598 49.2273 15.4773C49.2273 16 49.0758 16.4659 48.7727 16.875C48.4735 17.2803 48.0549 17.5985 47.517 17.8295C46.983 18.0606 46.3636 18.1761 45.6591 18.1761C44.6818 18.1761 43.8845 17.9678 43.267 17.5511C42.6496 17.1307 42.2708 16.5341 42.1307 15.7614L43.7727 15.5114C43.875 15.9394 44.0852 16.2633 44.4034 16.483C44.7216 16.6989 45.1364 16.8068 45.6477 16.8068C46.2045 16.8068 46.6496 16.6913 46.983 16.4602C47.3163 16.2254 47.483 15.9394 47.483 15.6023C47.483 15.3295 47.3807 15.1004 47.1761 14.9148C46.9754 14.7292 46.6667 14.589 46.25 14.4943L44.7727 14.1705C43.9583 13.9848 43.3561 13.6894 42.9659 13.2841C42.5795 12.8788 42.3864 12.3655 42.3864 11.7443C42.3864 11.2292 42.5303 10.7784 42.8182 10.392C43.1061 10.0057 43.5038 9.70455 44.0114 9.48864C44.5189 9.26894 45.1004 9.15909 45.7557 9.15909C46.6989 9.15909 47.4413 9.36364 47.983 9.77273C48.5246 10.178 48.8826 10.7216 49.0568 11.4034Z" fill="black"/>
</svg>
