<svg width="60" height="25" viewBox="0 0 60 25" fill="none" xmlns="http://www.w3.org/2000/svg">
<rect width="60" height="25" rx="12.5" fill="#1A1A1A"/>
<path d="M11.2784 18V6.36364H18.4943V7.875H13.0341V11.4205H17.9773V12.9261H13.0341V18H11.2784ZM20.1832 18H18.3196L22.5071 6.36364H24.5355L28.723 18H26.8594L23.5696 8.47727H23.4787L20.1832 18ZM20.4957 13.4432H26.5412V14.9205H20.4957V13.4432ZM34.1349 14.2273H35.8622L37.0781 15.8125L37.652 16.517L39.5895 19.0455H37.794L36.4986 17.358L36.0554 16.7443L34.1349 14.2273ZM39.9645 12.1818C39.9645 13.4242 39.7372 14.4924 39.2827 15.3864C38.8281 16.2765 38.205 16.9621 37.4134 17.4432C36.6255 17.9205 35.7296 18.1591 34.7259 18.1591C33.7183 18.1591 32.8187 17.9205 32.027 17.4432C31.2391 16.9621 30.6179 16.2746 30.1634 15.3807C29.7088 14.4867 29.4815 13.4205 29.4815 12.1818C29.4815 10.9394 29.7088 9.87311 30.1634 8.98295C30.6179 8.08901 31.2391 7.40341 32.027 6.92614C32.8187 6.44508 33.7183 6.20455 34.7259 6.20455C35.7296 6.20455 36.6255 6.44508 37.4134 6.92614C38.205 7.40341 38.8281 8.08901 39.2827 8.98295C39.7372 9.87311 39.9645 10.9394 39.9645 12.1818ZM38.2259 12.1818C38.2259 11.2348 38.0724 10.4375 37.7656 9.78977C37.4626 9.13826 37.0459 8.64583 36.5156 8.3125C35.9891 7.97538 35.3925 7.80682 34.7259 7.80682C34.0554 7.80682 33.4569 7.97538 32.9304 8.3125C32.4039 8.64583 31.9872 9.13826 31.6804 9.78977C31.3774 10.4375 31.2259 11.2348 31.2259 12.1818C31.2259 13.1288 31.3774 13.928 31.6804 14.5795C31.9872 15.2273 32.4039 15.7197 32.9304 16.0568C33.4569 16.3902 34.0554 16.5568 34.7259 16.5568C35.3925 16.5568 35.9891 16.3902 36.5156 16.0568C37.0459 15.7197 37.4626 15.2273 37.7656 14.5795C38.0724 13.928 38.2259 13.1288 38.2259 12.1818ZM48.5568 11.4034L47.017 11.6761C46.9527 11.4792 46.8504 11.2917 46.7102 11.1136C46.5739 10.9356 46.3883 10.7898 46.1534 10.6761C45.9186 10.5625 45.625 10.5057 45.2727 10.5057C44.7917 10.5057 44.3902 10.6136 44.0682 10.8295C43.7462 11.0417 43.5852 11.3163 43.5852 11.6534C43.5852 11.9451 43.6932 12.1799 43.9091 12.358C44.125 12.536 44.4735 12.6818 44.9545 12.7955L46.3409 13.1136C47.1439 13.2992 47.7424 13.5852 48.1364 13.9716C48.5303 14.358 48.7273 14.8598 48.7273 15.4773C48.7273 16 48.5758 16.4659 48.2727 16.875C47.9735 17.2803 47.5549 17.5985 47.017 17.8295C46.483 18.0606 45.8636 18.1761 45.1591 18.1761C44.1818 18.1761 43.3845 17.9678 42.767 17.5511C42.1496 17.1307 41.7708 16.5341 41.6307 15.7614L43.2727 15.5114C43.375 15.9394 43.5852 16.2633 43.9034 16.483C44.2216 16.6989 44.6364 16.8068 45.1477 16.8068C45.7045 16.8068 46.1496 16.6913 46.483 16.4602C46.8163 16.2254 46.983 15.9394 46.983 15.6023C46.983 15.3295 46.8807 15.1004 46.6761 14.9148C46.4754 14.7292 46.1667 14.589 45.75 14.4943L44.2727 14.1705C43.4583 13.9848 42.8561 13.6894 42.4659 13.2841C42.0795 12.8788 41.8864 12.3655 41.8864 11.7443C41.8864 11.2292 42.0303 10.7784 42.3182 10.392C42.6061 10.0057 43.0038 9.70455 43.5114 9.48864C44.0189 9.26894 44.6004 9.15909 45.2557 9.15909C46.1989 9.15909 46.9413 9.36364 47.483 9.77273C48.0246 10.178 48.3826 10.7216 48.5568 11.4034Z" fill="white"/>
</svg>
