<svg width="15" height="14" viewBox="0 0 15 14" fill="none" xmlns="http://www.w3.org/2000/svg">
<g clip-path="url(#clip0_1772_11546)">
<path d="M7.42348 1.35889H5.4256C4.32221 1.35889 3.42773 2.20074 3.42773 3.23923C3.42773 4.27771 4.32221 5.11957 5.4256 5.11957H7.42348V1.35889Z" stroke="currentColor" stroke-width="1.2"/>
<path d="M7.42348 5.11963H5.4256C4.32221 5.11963 3.42773 5.9615 3.42773 6.99995C3.42773 8.03846 4.32221 8.88033 5.4256 8.88033H7.42348V5.11963Z" stroke="currentColor" stroke-width="1.2"/>
<path d="M11.4191 6.99995C11.4191 8.03846 10.5246 8.88033 9.42118 8.88033C8.31782 8.88033 7.42334 8.03846 7.42334 6.99995C7.42334 5.9615 8.31782 5.11963 9.42118 5.11963C10.5246 5.11963 11.4191 5.9615 11.4191 6.99995Z" stroke="currentColor" stroke-width="1.2"/>
<path d="M5.4256 8.88037H7.42348V10.7607C7.42348 11.7992 6.529 12.6411 5.4256 12.6411C4.32221 12.6411 3.42773 11.7992 3.42773 10.7607C3.42773 9.72224 4.32221 8.88037 5.4256 8.88037Z" stroke="currentColor" stroke-width="1.2"/>
<path d="M7.42334 1.35889H9.42118C10.5246 1.35889 11.4191 2.20074 11.4191 3.23923C11.4191 4.27771 10.5246 5.11957 9.42118 5.11957H7.42334V1.35889Z" stroke="currentColor" stroke-width="1.2"/>
</g>
<defs>
<clipPath id="clip0_1772_11546">
<rect width="14.3846" height="13.5385" fill="currentColor" transform="translate(0.230957 0.230713)"/>
</clipPath>
</defs>
</svg>
