<svg width="17" height="14" viewBox="0 0 17 14" fill="none" xmlns="http://www.w3.org/2000/svg">
    <path
        d="M15.691 3.77982L13.7243 5.89755C14.7971 6.14065 15.629 6.73074 16.2198 7.66782C16.8106 8.6049 16.9845 9.60984 16.7414 10.6826C16.4983 11.7554 15.9082 12.5873 14.9712 13.1781C14.0341 13.769 13.0291 13.9428 11.9563 13.6997C10.8835 13.4566 10.0517 12.8665 9.46085 11.9295C8.87001 10.9924 8.69613 9.98745 8.93923 8.91464C9.02395 8.54079 9.14692 8.20551 9.30814 7.9088C9.46937 7.6121 9.67253 7.33771 9.91763 7.08565L14.2296 2.42332C14.344 2.29544 14.4845 2.20338 14.6511 2.14713C14.8176 2.09088 14.9903 2.08301 15.1691 2.12353C15.543 2.20825 15.7865 2.43433 15.8998 2.80178C16.013 3.16923 15.9434 3.49524 15.691 3.77982ZM6.91351 1.79081L4.94686 3.90855C6.01966 4.15165 6.85149 4.74174 7.44234 5.67882C8.03318 6.6159 8.20706 7.62084 7.96396 8.69364C7.72086 9.76645 7.13077 10.5983 6.19369 11.1891C5.2566 11.78 4.25166 11.9538 3.17886 11.7107C2.10606 11.4676 1.27424 10.8775 0.683389 9.94047C0.0925413 9.00339 -0.0813323 7.99845 0.161768 6.92564C0.246484 6.55179 0.369454 6.21651 0.530679 5.9198C0.691905 5.6231 0.895068 5.34871 1.14017 5.09665L5.45216 0.434316C5.56658 0.306442 5.70707 0.214379 5.87362 0.158129C6.04017 0.101879 6.21285 0.0940123 6.39165 0.134529C6.7655 0.219246 7.00906 0.445329 7.12232 0.812778C7.23558 1.18023 7.16598 1.50624 6.91351 1.79081Z"
        fill="#858585" />
</svg>