<svg width="14" height="14" viewBox="0 0 14 14" fill="none" xmlns="http://www.w3.org/2000/svg">
    <path
        d="M6.62559 11.0697L3.5224 12.9174C3.38531 13.0036 3.24199 13.0405 3.09244 13.0282C2.94288 13.0159 2.81203 12.9666 2.69986 12.8804C2.5877 12.7942 2.50046 12.6864 2.43815 12.5571C2.37583 12.4277 2.36337 12.283 2.40076 12.1229L3.22329 8.63073L0.475282 6.28416C0.350656 6.1733 0.272764 6.04704 0.241608 5.90538C0.210451 5.76373 0.219798 5.62515 0.269649 5.48965C0.319499 5.35416 0.394275 5.24329 0.493976 5.15707C0.593677 5.07084 0.730766 5.01541 0.905243 4.99078L4.53187 4.67667L5.93392 1.38778C5.99623 1.23997 6.09282 1.1291 6.22367 1.0552C6.35453 0.98129 6.48851 0.944336 6.62559 0.944336C6.76268 0.944336 6.89666 0.98129 7.02751 1.0552C7.15837 1.1291 7.25496 1.23997 7.31727 1.38778L8.71932 4.67667L12.3459 4.99078C12.5204 5.01541 12.6575 5.07084 12.7572 5.15707C12.8569 5.24329 12.9317 5.35416 12.9815 5.48965C13.0314 5.62515 13.0407 5.76373 13.0096 5.90538C12.9784 6.04704 12.9005 6.1733 12.7759 6.28416L10.0279 8.63073L10.8504 12.1229C10.8878 12.283 10.8754 12.4277 10.813 12.5571C10.7507 12.6864 10.6635 12.7942 10.5513 12.8804C10.4392 12.9666 10.3083 13.0159 10.1588 13.0282C10.0092 13.0405 9.86588 13.0036 9.72879 12.9174L6.62559 11.0697Z"
        fill="#FFC700" />
</svg>