<svg width="18" height="18" viewBox="0 0 18 18" fill="none" xmlns="http://www.w3.org/2000/svg">
<g clip-path="url(#clip0_777_69)">
<path fill-rule="evenodd" clip-rule="evenodd" d="M13.9205 17.3L11.1898 16.6811L12.2727 11.903C12.5698 10.5922 12.1573 9.72985 11.1203 9.49482C9.99181 9.23906 9.14939 9.84929 8.85927 11.1293L7.77634 15.9075L5.0456 15.2886L7.05704 6.41364L9.78778 7.03255L9.56159 8.03058C9.56159 8.03058 10.7591 6.72138 12.6897 7.15895C14.621 7.59667 15.7794 9.09829 15.2267 11.5368L13.9205 17.3ZM4.26705 4.28903C3.34611 4.0803 2.77043 3.15891 2.98071 2.23114C3.19083 1.30405 4.1075 0.720874 5.02845 0.9296C5.94871 1.13817 6.52438 2.05958 6.31426 2.98667C6.10467 3.91459 5.18731 4.4976 4.26705 4.28903ZM0.266798 14.2055L3.68023 14.9791L5.69167 6.10419L2.27824 5.33056L0.266798 14.2055Z" fill="#ECEDEE"/>
</g>
<defs>
<clipPath id="clip0_777_69">
<rect width="14" height="14" fill="white" transform="translate(3.36133 0.551758) rotate(12.77)"/>
</clipPath>
</defs>
</svg>
