<svg width="12" height="18" viewBox="0 0 12 18" fill="none" xmlns="http://www.w3.org/2000/svg">
    <path
        d="M1.5 18C1.0875 18 0.734375 17.8531 0.440625 17.5594C0.146875 17.2656 0 16.9125 0 16.5V1.5C0 1.0875 0.146875 0.734376 0.440625 0.440626C0.734375 0.146876 1.0875 0 1.5 0H10.5C10.9125 0 11.2656 0.146876 11.5594 0.440626C11.8531 0.734376 12 1.0875 12 1.5V16.5C12 16.9125 11.8531 17.2656 11.5594 17.5594C11.2656 17.8531 10.9125 18 10.5 18H1.5ZM1.5 13.5V16.5H10.5V13.5H1.5ZM5.9956 15.75C6.20687 15.75 6.38542 15.6785 6.53125 15.5356C6.67708 15.3927 6.75 15.2156 6.75 15.0044C6.75 14.7931 6.67855 14.6146 6.53565 14.4688C6.39273 14.3229 6.21565 14.25 6.0044 14.25C5.79313 14.25 5.61458 14.3215 5.46875 14.4644C5.32292 14.6073 5.25 14.7844 5.25 14.9956C5.25 15.2069 5.32145 15.3854 5.46435 15.5312C5.60727 15.6771 5.78435 15.75 5.9956 15.75ZM1.5 12H10.5V4H1.5V12ZM1.5 2.5H10.5V1.5H1.5V2.5Z"
        fill="#ECEDEE" />
</svg>