<svg width="15" height="16" viewBox="0 0 15 16" fill="none" xmlns="http://www.w3.org/2000/svg">
    <path
        d="M2.5 12.3542C1.70833 11.6875 1.09375 10.8849 0.65625 9.94648C0.21875 9.00801 0 8.0189 0 6.97917C0 5.04051 0.682584 3.39265 2.04775 2.03558C3.4129 0.678528 5.0706 0 7.02083 0C8.53472 0 9.89583 0.40625 11.1042 1.21875C12.3125 2.03125 13.1111 3.09028 13.5 4.39583L14.875 9.04167C14.9444 9.28444 14.9062 9.50486 14.7604 9.70292C14.6146 9.90097 14.4167 10 14.1667 10H13V12.5C13 12.9125 12.8531 13.2656 12.5594 13.5594C12.2656 13.8531 11.9125 14 11.5 14H9.5V15.25C9.5 15.4625 9.42855 15.6406 9.28565 15.7844C9.14273 15.9281 8.96565 16 8.7544 16C8.54313 16 8.36458 15.9281 8.21875 15.7844C8.07292 15.6406 8 15.4625 8 15.25V13.25C8 13.0375 8.07187 12.8594 8.21562 12.7156C8.35938 12.5719 8.5375 12.5 8.75 12.5H11.5V9.25C11.5 9.0375 11.5719 8.85938 11.7156 8.71563C11.8594 8.57188 12.0375 8.5 12.25 8.5H13.1667L12.0833 4.89583C11.7778 3.89583 11.1562 3.07986 10.2188 2.44792C9.28125 1.81597 8.21528 1.5 7.02083 1.5C5.47917 1.5 4.17361 2.03215 3.10417 3.09646C2.03472 4.16075 1.5 5.45499 1.5 6.97917C1.5 7.79763 1.67361 8.57515 2.02083 9.31175C2.36806 10.0484 2.85417 10.6806 3.47917 11.2083L4 11.6667V15.25C4 15.4625 3.92855 15.6406 3.78565 15.7844C3.64273 15.9281 3.46565 16 3.2544 16C3.04313 16 2.86458 15.9281 2.71875 15.7844C2.57292 15.6406 2.5 15.4625 2.5 15.25V12.3542ZM7 11C7.23611 11 7.42708 10.9229 7.57292 10.7688C7.71875 10.6147 7.79167 10.4237 7.79167 10.1959C7.79167 9.96808 7.71875 9.77778 7.57292 9.625C7.42708 9.47222 7.23611 9.39583 7 9.39583C6.76389 9.39583 6.57292 9.4717 6.42708 9.62344C6.28125 9.77517 6.20833 9.96319 6.20833 10.1875C6.20833 10.4177 6.28125 10.6107 6.42708 10.7664C6.57292 10.9221 6.76389 11 7 11ZM7.03719 4.14583C7.33803 4.14583 7.5876 4.23958 7.7859 4.42708C7.98419 4.61458 8.08333 4.84722 8.08333 5.125C8.08333 5.31944 8.03125 5.49306 7.92708 5.64583C7.82292 5.79861 7.56944 6.0625 7.16667 6.4375C6.91667 6.67361 6.73611 6.89236 6.625 7.09375C6.51389 7.29514 6.44444 7.54861 6.41667 7.85417C6.38889 8.00694 6.4375 8.14583 6.5625 8.27083C6.6875 8.39583 6.83608 8.45833 7.00823 8.45833C7.15391 8.45833 7.28965 8.40278 7.41546 8.29167C7.54126 8.18056 7.61806 8.04167 7.64583 7.875C7.67361 7.68056 7.74267 7.50137 7.853 7.33744C7.96335 7.17352 8.13735 6.98465 8.375 6.77083C8.69444 6.47917 8.93056 6.19792 9.08333 5.92708C9.23611 5.65625 9.3125 5.36371 9.3125 5.04946C9.3125 4.47561 9.09028 3.99057 8.64583 3.59433C8.20139 3.19811 7.66667 3 7.04167 3C6.59722 3 6.19444 3.09375 5.83333 3.28125C5.47222 3.46875 5.19444 3.72917 5 4.0625C4.90278 4.21528 4.88194 4.375 4.9375 4.54167C4.99306 4.70833 5.09572 4.82639 5.2455 4.89583C5.39529 4.96528 5.54167 4.97569 5.68465 4.92708C5.82762 4.87847 5.95357 4.78472 6.0625 4.64583C6.1875 4.49306 6.33333 4.37153 6.5 4.28125C6.66667 4.19097 6.84573 4.14583 7.03719 4.14583Z"
        fill="#ECEDEE" />
</svg>