<svg xmlns="http://www.w3.org/2000/svg" viewBox="0 0 954.55 214.52"><defs><style>.cls-1{fill-rule:evenodd;}</style></defs><g id="Capa_2" data-name="Capa 2"><g id="Logos"><path class="cls-1" d="M177.9,26.54a20,20,0,1,0-20.6,13.37l80,139.09h0l.39.69,5.79,10.09.12.21H271.8Zm-27-6.57A8.15,8.15,0,1,1,159,28.12v0h0A8.15,8.15,0,0,1,150.86,20Z"/><path class="cls-1" d="M199.6,165.23,103.42.05,16.25,150.36A20,20,0,0,0,0,170v0a20,20,0,1,0,38.13-8.4l.46-.77L103.42,47.2,185.94,190h27.44l-6-10.88ZM20,178.12A8.16,8.16,0,1,1,28.12,170,8.15,8.15,0,0,1,20,178.12Z"/><polygon class="cls-1" points="45.81 189.99 73.26 189.99 103.49 137.81 129.36 182.11 134.4 189.99 161.15 189.99 103.26 89.98 45.81 189.99"/><path d="M300.24,80.76,327.6,1.28h18.74L373.7,80.76H358L352.3,63.69H321.64l-5.75,17.07Zm25.55-29.87h22.36L335,11.31h4Z"/><path d="M381.37,80.76V0h13.95V80.76Z"/><path d="M425.77,82a25.34,25.34,0,0,1-10.54-2,15.35,15.35,0,0,1-9.37-14.61A17.21,17.21,0,0,1,408,56.81a17,17,0,0,1,6.6-6.35,33,33,0,0,1,11.29-3.63l18.95-3.09V54.41l-16.29,2.77a11.91,11.91,0,0,0-6.18,2.67,6.59,6.59,0,0,0-2,5,5.67,5.67,0,0,0,2.29,4.75,9.06,9.06,0,0,0,5.69,1.76A15.54,15.54,0,0,0,436,69.5a13.24,13.24,0,0,0,5.22-5.17,14.52,14.52,0,0,0,1.86-7.25V42.14a7.88,7.88,0,0,0-2.92-6.24,11.49,11.49,0,0,0-7.72-2.51,13.56,13.56,0,0,0-7.93,2.4,13.87,13.87,0,0,0-5.06,6.35l-11.4-5.55a20.25,20.25,0,0,1,5.38-8,27.05,27.05,0,0,1,8.68-5.28A30.06,30.06,0,0,1,433,21.44a28.54,28.54,0,0,1,12.56,2.62A20.43,20.43,0,0,1,454,31.31a19.39,19.39,0,0,1,3,10.83V80.76h-13.2V70.84l3-.22a23.38,23.38,0,0,1-5.32,6.24,22.33,22.33,0,0,1-7,3.85A27.38,27.38,0,0,1,425.77,82Z"/><path d="M470,80.76v-58h13.1V36.17l-1.49-2.24A15,15,0,0,1,488,24.54a20.26,20.26,0,0,1,11.28-3.1,21.64,21.64,0,0,1,12.57,3.74,16.78,16.78,0,0,1,7,9.81l-3.93.32a20.82,20.82,0,0,1,8-10.4,23.3,23.3,0,0,1,23.27-.69A20,20,0,0,1,553.75,32a23.21,23.21,0,0,1,2.77,11.47V80.76H542.57v-34a14.6,14.6,0,0,0-1.39-6.62,10.53,10.53,0,0,0-3.83-4.32,10.94,10.94,0,0,0-6-1.54,11.12,11.12,0,0,0-5.86,1.54,10.37,10.37,0,0,0-3.94,4.32,14.73,14.73,0,0,0-1.38,6.62v34h-14v-34a14.73,14.73,0,0,0-1.38-6.62A10.46,10.46,0,0,0,501,35.79a12,12,0,0,0-11.76,0,10.24,10.24,0,0,0-3.94,4.32,14.6,14.6,0,0,0-1.39,6.62v34Z"/><path d="M596.66,82a30.94,30.94,0,0,1-15.5-4A29.48,29.48,0,0,1,566,51.74a29.6,29.6,0,0,1,15.12-26.35,32.37,32.37,0,0,1,31,0,30.21,30.21,0,0,1,11,10.72,29.63,29.63,0,0,1,4.09,15.63,29.37,29.37,0,0,1-4.15,15.58A30.44,30.44,0,0,1,596.66,82Zm0-12.8A15.22,15.22,0,0,0,604.91,67a15.8,15.8,0,0,0,5.64-6.24,19.22,19.22,0,0,0,2.08-9,18.78,18.78,0,0,0-2.08-9,16.28,16.28,0,0,0-5.64-6.19,14.92,14.92,0,0,0-8.25-2.29,15.4,15.4,0,0,0-8.42,2.29,16.17,16.17,0,0,0-5.69,6.19,18.78,18.78,0,0,0-2.08,9,19.22,19.22,0,0,0,2.08,9,15.22,15.22,0,0,0,14.11,8.48Z"/><path d="M300.15,190.8l28.25-80.33h15.74l28.25,80.33H358.81l-6.15-18H320l-6.26,18Zm23.5-29.33h25.13l-14.24-42h3.56Z"/><path d="M380.69,190.8V109.17h12.19V190.8Z"/><path d="M435.25,214.52a32.7,32.7,0,0,1-11.75-2.05,27.9,27.9,0,0,1-9.27-5.66,23.32,23.32,0,0,1-5.83-8.46l11.22-4.64a13.81,13.81,0,0,0,5.55,6.79,17.58,17.58,0,0,0,10,2.7,18.73,18.73,0,0,0,8.3-1.78,14,14,0,0,0,5.82-5.17,14.87,14.87,0,0,0,2.16-8.14V175l2.15,2.48a20.48,20.48,0,0,1-8.35,8.52,24.71,24.71,0,0,1-12,2.91,28.39,28.39,0,0,1-14.56-3.77,27.4,27.4,0,0,1-10.19-10.36A29.44,29.44,0,0,1,404.74,160a29.1,29.1,0,0,1,3.72-14.77,27.6,27.6,0,0,1,24.64-14A24.37,24.37,0,0,1,445,134a22.79,22.79,0,0,1,8.57,8.25l-1.61,3V132.47h11.54v55.64a25.45,25.45,0,0,1-13.59,23A30.28,30.28,0,0,1,435.25,214.52Zm-.64-37a16.08,16.08,0,0,0,8.62-2.32,17,17,0,0,0,6-6.25,18.9,18.9,0,0,0-.06-17.85,17.27,17.27,0,0,0-6-6.31,16,16,0,0,0-8.51-2.32,17,17,0,0,0-8.85,2.32,16.71,16.71,0,0,0-6.09,6.26,19.11,19.11,0,0,0,0,17.84,16.63,16.63,0,0,0,6.09,6.31A16.89,16.89,0,0,0,434.61,177.54Z"/><path d="M505.88,192.09a30.38,30.38,0,0,1-15.36-4,30.52,30.52,0,0,1-.06-53,32.24,32.24,0,0,1,30.89,0,29.58,29.58,0,0,1,10.9,10.78,32.37,32.37,0,0,1-.06,31.43,29.71,29.71,0,0,1-11,10.84A30.38,30.38,0,0,1,505.88,192.09Zm0-11.32a17,17,0,0,0,9.17-2.48,17.5,17.5,0,0,0,6.3-6.84,20.69,20.69,0,0,0,2.32-9.87,20.31,20.31,0,0,0-2.32-9.81,17.66,17.66,0,0,0-6.3-6.8,18.08,18.08,0,0,0-18.28,0,17.51,17.51,0,0,0-6.36,6.8,20.31,20.31,0,0,0-2.32,9.81,20.69,20.69,0,0,0,2.32,9.87,17.35,17.35,0,0,0,6.36,6.84A17,17,0,0,0,505.88,180.77Z"/><path d="M548.15,190.8V132.47H559.8v11.75l-1.08-1.73a14.5,14.5,0,0,1,6.25-8.25,20.2,20.2,0,0,1,10.35-2.53h3.56v11.11h-5.07a13.18,13.18,0,0,0-9.75,3.72q-3.72,3.72-3.73,10.62V190.8Z"/><path d="M587.18,124.49v-14h12.19v14Zm0,66.31V132.47h12.19V190.8Z"/><path d="M638.83,191.45q-9.17,0-14.23-5.18t-5.07-14.56V143.46H609.29v-11h1.62a8.35,8.35,0,0,0,6.36-2.38,9,9,0,0,0,2.26-6.47v-4.53h12.19v13.38H645v11H631.72v27.72a12.12,12.12,0,0,0,1,5.12,6.78,6.78,0,0,0,3.12,3.23,12,12,0,0,0,5.61,1.13c.58,0,1.22,0,1.94-.1l2-.22V190.8c-1,.14-2.12.29-3.34.43A26.93,26.93,0,0,1,638.83,191.45Z"/><path d="M657.27,190.8V109.17h12.19V143.9l-1.94-1.51a16.32,16.32,0,0,1,6.9-8.36,20.82,20.82,0,0,1,11-2.86,22.88,22.88,0,0,1,11.43,2.8,20.15,20.15,0,0,1,7.77,7.77,22.6,22.6,0,0,1,2.8,11.32V190.8H695.33V156.4a15.44,15.44,0,0,0-1.67-7.49,11.91,11.91,0,0,0-4.58-4.75,14.12,14.12,0,0,0-13.32,0,11.77,11.77,0,0,0-4.63,4.8,15.54,15.54,0,0,0-1.67,7.44v34.4Z"/><path d="M720.46,190.8V132.47H732.1v12.61l-1.5-1.94a15.51,15.51,0,0,1,6.68-8.95,20.63,20.63,0,0,1,11.11-3,21.54,21.54,0,0,1,12.45,3.72,17.83,17.83,0,0,1,7.28,9.87l-3.45.32a20.36,20.36,0,0,1,7.92-10.46,22.06,22.06,0,0,1,12.24-3.45,21.76,21.76,0,0,1,10.95,2.8,21.12,21.12,0,0,1,7.82,7.77,22,22,0,0,1,2.91,11.32V190.8H794.32V156.4a16.42,16.42,0,0,0-1.56-7.49,11.56,11.56,0,0,0-4.31-4.75,12.19,12.19,0,0,0-6.42-1.67,12.42,12.42,0,0,0-6.47,1.67,11.75,11.75,0,0,0-4.42,4.8,16,16,0,0,0-1.62,7.44v34.4H757.44V156.4a16.42,16.42,0,0,0-1.56-7.49,11.56,11.56,0,0,0-4.31-4.75,13.48,13.48,0,0,0-13,0,11.36,11.36,0,0,0-4.36,4.8,16.39,16.39,0,0,0-1.57,7.44v34.4Z"/><path d="M819.55,124.49v-14h12.19v14Zm0,66.31V132.47h12.19V190.8Z"/><path d="M873.68,192.09a29.43,29.43,0,0,1-15.47-4,29.81,29.81,0,0,1-10.68-10.94,33.05,33.05,0,0,1,0-31.17,28.39,28.39,0,0,1,10.67-10.83,30.37,30.37,0,0,1,15.53-3.94,29.29,29.29,0,0,1,11.11,2.1,28.41,28.41,0,0,1,9,5.77,22.94,22.94,0,0,1,5.66,8.52l-10.67,5a15.78,15.78,0,0,0-5.88-7.28,16,16,0,0,0-9.22-2.75,16.55,16.55,0,0,0-8.89,2.43,16.92,16.92,0,0,0-6.2,6.79,22.59,22.59,0,0,0,0,19.74,17.26,17.26,0,0,0,6.2,6.84,16.24,16.24,0,0,0,8.89,2.48A15.64,15.64,0,0,0,882.9,178a16.6,16.6,0,0,0,5.88-7.38l10.67,5.06a22.51,22.51,0,0,1-5.55,8.36,28.52,28.52,0,0,1-9,5.88A28.83,28.83,0,0,1,873.68,192.09Z"/><path d="M932.88,192.09a27.92,27.92,0,0,1-15.69-4.42,23.41,23.41,0,0,1-9.44-11.86l9.39-4.42a19.77,19.77,0,0,0,6.52,7.87,15.7,15.7,0,0,0,9.22,2.91,11.7,11.7,0,0,0,7-1.94,6.17,6.17,0,0,0,2.69-5.28,5.08,5.08,0,0,0-1.18-3.5,9.33,9.33,0,0,0-3-2.22,17.73,17.73,0,0,0-3.61-1.29l-9.17-2.59q-7.54-2.15-11.26-6.52a15.23,15.23,0,0,1-3.72-10.19,15.91,15.91,0,0,1,2.69-9.22,17.69,17.69,0,0,1,7.44-6.09,25.47,25.47,0,0,1,10.68-2.16,26.1,26.1,0,0,1,14.23,3.94,21.24,21.24,0,0,1,8.84,10.94l-9.38,4.42a14.41,14.41,0,0,0-5.44-6.68,14.69,14.69,0,0,0-8.36-2.48,10,10,0,0,0-6.36,1.88,6,6,0,0,0-2.37,4.91,5.26,5.26,0,0,0,1.07,3.4,7.72,7.72,0,0,0,2.81,2.15,24.61,24.61,0,0,0,3.56,1.35l9.48,2.81q7.23,2,11.11,6.41a15.13,15.13,0,0,1,3.88,10.41,15.47,15.47,0,0,1-2.75,9.11,18.19,18.19,0,0,1-7.6,6.14A27,27,0,0,1,932.88,192.09Z"/></g></g></svg>