<svg width="227" height="71" viewBox="0 0 227 71" fill="none" xmlns="http://www.w3.org/2000/svg">
<circle cx="64.75" cy="11.75" r="0.75" />
<circle cx="29.75" cy="2.75" r="0.75" />
<circle cx="12.75" cy="50.75" r="0.75" />
<circle cx="28.5" cy="58.5" r="0.5" />
<circle cx="61.5" cy="37.5" r="0.5" />
<circle cx="12.5" cy="18.5" r="0.5" />
<circle cx="85.5" cy="43.5" r="0.5" />
<circle cx="94.5" cy="70.5" r="0.5" />
<circle cx="132.5" cy="44.5" r="0.5" />
<circle cx="113.5" cy="19.5" r="0.5" />
<circle cx="152.25" cy="13.25" r="0.25" />
<circle cx="172.25" cy="45.25" r="0.25" />
<circle cx="192.25" cy="29.25" r="0.25" />
<circle cx="197.25" cy="4.25" r="0.25" />
<circle cx="226.25" cy="46.25" r="0.25" />
<circle cx="225.25" cy="17.25" r="0.25" />
<circle cx="110.25" cy="49.25" r="0.25" />
<circle cx="71.25" cy="21.25" r="0.25" />
<circle cx="55.25" cy="59.25" r="0.25" />
<circle cx="0.25" cy="31.25" r="0.25" />
<circle cx="12.25" cy="2.25" r="0.25" />
<circle cx="17.25" cy="66.25" r="0.25" />
<circle cx="91.25" cy="30.25" r="0.25" />
<circle cx="78.25" cy="61.25" r="0.25" />
<circle cx="196.25" cy="60.25" r="0.25" />
<circle cx="121.25" cy="0.25" r="0.25" />
</svg>
