<svg width="1150" height="700" viewBox="0 0 1150 700" fill="none" xmlns="http://www.w3.org/2000/svg">
<rect x="0.5" y="0.5" width="49" height="49" stroke="#EAEAEA" stroke-linecap="round" stroke-dasharray="5 5"/>
<rect x="50.5" y="0.5" width="49" height="49" stroke="#EAEAEA" stroke-linecap="round" stroke-dasharray="5 5"/>
<rect x="100.5" y="0.5" width="49" height="49" stroke="#EAEAEA" stroke-linecap="round" stroke-dasharray="5 5"/>
<rect x="150.5" y="0.5" width="49" height="49" stroke="#EAEAEA" stroke-linecap="round" stroke-dasharray="5 5"/>
<rect x="200.5" y="0.5" width="49" height="49" stroke="#EAEAEA" stroke-linecap="round" stroke-dasharray="5 5"/>
<rect x="250.5" y="0.5" width="49" height="49" stroke="#EAEAEA" stroke-linecap="round" stroke-dasharray="5 5"/>
<rect x="300.5" y="0.5" width="49" height="49" stroke="#EAEAEA" stroke-linecap="round" stroke-dasharray="5 5"/>
<rect x="350.5" y="0.5" width="49" height="49" stroke="#EAEAEA" stroke-linecap="round" stroke-dasharray="5 5"/>
<rect x="400.5" y="0.5" width="49" height="49" stroke="#EAEAEA" stroke-linecap="round" stroke-dasharray="5 5"/>
<rect x="450.5" y="0.5" width="49" height="49" stroke="#EAEAEA" stroke-linecap="round" stroke-dasharray="5 5"/>
<rect x="500.5" y="0.5" width="49" height="49" stroke="#EAEAEA" stroke-linecap="round" stroke-dasharray="5 5"/>
<rect x="550.5" y="0.5" width="49" height="49" stroke="#EAEAEA" stroke-linecap="round" stroke-dasharray="5 5"/>
<rect x="600.5" y="0.5" width="49" height="49" stroke="#EAEAEA" stroke-linecap="round" stroke-dasharray="5 5"/>
<rect x="650.5" y="0.5" width="49" height="49" stroke="#EAEAEA" stroke-linecap="round" stroke-dasharray="5 5"/>
<rect x="700.5" y="0.5" width="49" height="49" stroke="#EAEAEA" stroke-linecap="round" stroke-dasharray="5 5"/>
<rect x="750.5" y="0.5" width="49" height="49" stroke="#EAEAEA" stroke-linecap="round" stroke-dasharray="5 5"/>
<rect x="800.5" y="0.5" width="49" height="49" stroke="#EAEAEA" stroke-linecap="round" stroke-dasharray="5 5"/>
<rect x="850.5" y="0.5" width="49" height="49" stroke="#EAEAEA" stroke-linecap="round" stroke-dasharray="5 5"/>
<rect x="900.5" y="0.5" width="49" height="49" stroke="#EAEAEA" stroke-linecap="round" stroke-dasharray="5 5"/>
<rect x="950.5" y="0.5" width="49" height="49" stroke="#EAEAEA" stroke-linecap="round" stroke-dasharray="5 5"/>
<rect x="1000.5" y="0.5" width="49" height="49" stroke="#EAEAEA" stroke-linecap="round" stroke-dasharray="5 5"/>
<rect x="1050.5" y="0.5" width="49" height="49" stroke="#EAEAEA" stroke-linecap="round" stroke-dasharray="5 5"/>
<rect x="1100.5" y="0.5" width="49" height="49" stroke="#EAEAEA" stroke-linecap="round" stroke-dasharray="5 5"/>
<rect x="0.5" y="50.5" width="49" height="49" stroke="#EAEAEA" stroke-linecap="round" stroke-dasharray="5 5"/>
<rect x="50.5" y="50.5" width="49" height="49" stroke="#EAEAEA" stroke-linecap="round" stroke-dasharray="5 5"/>
<rect x="100.5" y="50.5" width="49" height="49" stroke="#EAEAEA" stroke-linecap="round" stroke-dasharray="5 5"/>
<rect x="150.5" y="50.5" width="49" height="49" stroke="#EAEAEA" stroke-linecap="round" stroke-dasharray="5 5"/>
<rect x="200.5" y="50.5" width="49" height="49" stroke="#EAEAEA" stroke-linecap="round" stroke-dasharray="5 5"/>
<rect x="250.5" y="50.5" width="49" height="49" stroke="#EAEAEA" stroke-linecap="round" stroke-dasharray="5 5"/>
<rect x="300.5" y="50.5" width="49" height="49" stroke="#EAEAEA" stroke-linecap="round" stroke-dasharray="5 5"/>
<rect x="350.5" y="50.5" width="49" height="49" stroke="#EAEAEA" stroke-linecap="round" stroke-dasharray="5 5"/>
<rect x="400.5" y="50.5" width="49" height="49" stroke="#EAEAEA" stroke-linecap="round" stroke-dasharray="5 5"/>
<rect x="450.5" y="50.5" width="49" height="49" stroke="#EAEAEA" stroke-linecap="round" stroke-dasharray="5 5"/>
<rect x="500.5" y="50.5" width="49" height="49" stroke="#EAEAEA" stroke-linecap="round" stroke-dasharray="5 5"/>
<rect x="550.5" y="50.5" width="49" height="49" stroke="#EAEAEA" stroke-linecap="round" stroke-dasharray="5 5"/>
<rect x="600.5" y="50.5" width="49" height="49" stroke="#EAEAEA" stroke-linecap="round" stroke-dasharray="5 5"/>
<rect x="650.5" y="50.5" width="49" height="49" stroke="#EAEAEA" stroke-linecap="round" stroke-dasharray="5 5"/>
<rect x="700.5" y="50.5" width="49" height="49" stroke="#EAEAEA" stroke-linecap="round" stroke-dasharray="5 5"/>
<rect x="750.5" y="50.5" width="49" height="49" stroke="#EAEAEA" stroke-linecap="round" stroke-dasharray="5 5"/>
<rect x="800.5" y="50.5" width="49" height="49" stroke="#EAEAEA" stroke-linecap="round" stroke-dasharray="5 5"/>
<rect x="850.5" y="50.5" width="49" height="49" stroke="#EAEAEA" stroke-linecap="round" stroke-dasharray="5 5"/>
<rect x="900.5" y="50.5" width="49" height="49" stroke="#EAEAEA" stroke-linecap="round" stroke-dasharray="5 5"/>
<rect x="950.5" y="50.5" width="49" height="49" stroke="#EAEAEA" stroke-linecap="round" stroke-dasharray="5 5"/>
<rect x="1000.5" y="50.5" width="49" height="49" stroke="#EAEAEA" stroke-linecap="round" stroke-dasharray="5 5"/>
<rect x="1050.5" y="50.5" width="49" height="49" stroke="#EAEAEA" stroke-linecap="round" stroke-dasharray="5 5"/>
<rect x="1100.5" y="50.5" width="49" height="49" stroke="#EAEAEA" stroke-linecap="round" stroke-dasharray="5 5"/>
<rect x="0.5" y="100.5" width="49" height="49" stroke="#EAEAEA" stroke-linecap="round" stroke-dasharray="5 5"/>
<rect x="50.5" y="100.5" width="49" height="49" stroke="#EAEAEA" stroke-linecap="round" stroke-dasharray="5 5"/>
<rect x="100.5" y="100.5" width="49" height="49" stroke="#EAEAEA" stroke-linecap="round" stroke-dasharray="5 5"/>
<rect x="150.5" y="100.5" width="49" height="49" stroke="#EAEAEA" stroke-linecap="round" stroke-dasharray="5 5"/>
<rect x="200.5" y="100.5" width="49" height="49" stroke="#EAEAEA" stroke-linecap="round" stroke-dasharray="5 5"/>
<rect x="250.5" y="100.5" width="49" height="49" stroke="#EAEAEA" stroke-linecap="round" stroke-dasharray="5 5"/>
<rect x="300.5" y="100.5" width="49" height="49" stroke="#EAEAEA" stroke-linecap="round" stroke-dasharray="5 5"/>
<rect x="350.5" y="100.5" width="49" height="49" stroke="#EAEAEA" stroke-linecap="round" stroke-dasharray="5 5"/>
<rect x="400.5" y="100.5" width="49" height="49" stroke="#EAEAEA" stroke-linecap="round" stroke-dasharray="5 5"/>
<rect x="450.5" y="100.5" width="49" height="49" stroke="#EAEAEA" stroke-linecap="round" stroke-dasharray="5 5"/>
<rect x="500.5" y="100.5" width="49" height="49" stroke="#EAEAEA" stroke-linecap="round" stroke-dasharray="5 5"/>
<rect x="550.5" y="100.5" width="49" height="49" stroke="#EAEAEA" stroke-linecap="round" stroke-dasharray="5 5"/>
<rect x="600.5" y="100.5" width="49" height="49" stroke="#EAEAEA" stroke-linecap="round" stroke-dasharray="5 5"/>
<rect x="650.5" y="100.5" width="49" height="49" stroke="#EAEAEA" stroke-linecap="round" stroke-dasharray="5 5"/>
<rect x="700.5" y="100.5" width="49" height="49" stroke="#EAEAEA" stroke-linecap="round" stroke-dasharray="5 5"/>
<rect x="750.5" y="100.5" width="49" height="49" stroke="#EAEAEA" stroke-linecap="round" stroke-dasharray="5 5"/>
<rect x="800.5" y="100.5" width="49" height="49" stroke="#EAEAEA" stroke-linecap="round" stroke-dasharray="5 5"/>
<rect x="850.5" y="100.5" width="49" height="49" stroke="#EAEAEA" stroke-linecap="round" stroke-dasharray="5 5"/>
<rect x="900.5" y="100.5" width="49" height="49" stroke="#EAEAEA" stroke-linecap="round" stroke-dasharray="5 5"/>
<rect x="950.5" y="100.5" width="49" height="49" stroke="#EAEAEA" stroke-linecap="round" stroke-dasharray="5 5"/>
<rect x="1000.5" y="100.5" width="49" height="49" stroke="#EAEAEA" stroke-linecap="round" stroke-dasharray="5 5"/>
<rect x="1050.5" y="100.5" width="49" height="49" stroke="#EAEAEA" stroke-linecap="round" stroke-dasharray="5 5"/>
<rect x="1100.5" y="100.5" width="49" height="49" stroke="#EAEAEA" stroke-linecap="round" stroke-dasharray="5 5"/>
<rect x="0.5" y="150.5" width="49" height="49" stroke="#EAEAEA" stroke-linecap="round" stroke-dasharray="5 5"/>
<rect x="50.5" y="150.5" width="49" height="49" stroke="#EAEAEA" stroke-linecap="round" stroke-dasharray="5 5"/>
<rect x="100.5" y="150.5" width="49" height="49" stroke="#EAEAEA" stroke-linecap="round" stroke-dasharray="5 5"/>
<rect x="150.5" y="150.5" width="49" height="49" stroke="#EAEAEA" stroke-linecap="round" stroke-dasharray="5 5"/>
<rect x="200.5" y="150.5" width="49" height="49" stroke="#EAEAEA" stroke-linecap="round" stroke-dasharray="5 5"/>
<rect x="250.5" y="150.5" width="49" height="49" stroke="#EAEAEA" stroke-linecap="round" stroke-dasharray="5 5"/>
<rect x="300.5" y="150.5" width="49" height="49" stroke="#EAEAEA" stroke-linecap="round" stroke-dasharray="5 5"/>
<rect x="350.5" y="150.5" width="49" height="49" stroke="#EAEAEA" stroke-linecap="round" stroke-dasharray="5 5"/>
<rect x="400.5" y="150.5" width="49" height="49" stroke="#EAEAEA" stroke-linecap="round" stroke-dasharray="5 5"/>
<rect x="450.5" y="150.5" width="49" height="49" stroke="#EAEAEA" stroke-linecap="round" stroke-dasharray="5 5"/>
<rect x="500.5" y="150.5" width="49" height="49" stroke="#EAEAEA" stroke-linecap="round" stroke-dasharray="5 5"/>
<rect x="550.5" y="150.5" width="49" height="49" stroke="#EAEAEA" stroke-linecap="round" stroke-dasharray="5 5"/>
<rect x="600.5" y="150.5" width="49" height="49" stroke="#EAEAEA" stroke-linecap="round" stroke-dasharray="5 5"/>
<rect x="650.5" y="150.5" width="49" height="49" stroke="#EAEAEA" stroke-linecap="round" stroke-dasharray="5 5"/>
<rect x="700.5" y="150.5" width="49" height="49" stroke="#EAEAEA" stroke-linecap="round" stroke-dasharray="5 5"/>
<rect x="750.5" y="150.5" width="49" height="49" stroke="#EAEAEA" stroke-linecap="round" stroke-dasharray="5 5"/>
<rect x="800.5" y="150.5" width="49" height="49" stroke="#EAEAEA" stroke-linecap="round" stroke-dasharray="5 5"/>
<rect x="850.5" y="150.5" width="49" height="49" stroke="#EAEAEA" stroke-linecap="round" stroke-dasharray="5 5"/>
<rect x="900.5" y="150.5" width="49" height="49" stroke="#EAEAEA" stroke-linecap="round" stroke-dasharray="5 5"/>
<rect x="950.5" y="150.5" width="49" height="49" stroke="#EAEAEA" stroke-linecap="round" stroke-dasharray="5 5"/>
<rect x="1000.5" y="150.5" width="49" height="49" stroke="#EAEAEA" stroke-linecap="round" stroke-dasharray="5 5"/>
<rect x="1050.5" y="150.5" width="49" height="49" stroke="#EAEAEA" stroke-linecap="round" stroke-dasharray="5 5"/>
<rect x="1100.5" y="150.5" width="49" height="49" stroke="#EAEAEA" stroke-linecap="round" stroke-dasharray="5 5"/>
<rect x="0.5" y="200.5" width="49" height="49" stroke="#EAEAEA" stroke-linecap="round" stroke-dasharray="5 5"/>
<rect x="50.5" y="200.5" width="49" height="49" stroke="#EAEAEA" stroke-linecap="round" stroke-dasharray="5 5"/>
<rect x="100.5" y="200.5" width="49" height="49" stroke="#EAEAEA" stroke-linecap="round" stroke-dasharray="5 5"/>
<rect x="150.5" y="200.5" width="49" height="49" stroke="#EAEAEA" stroke-linecap="round" stroke-dasharray="5 5"/>
<rect x="200.5" y="200.5" width="49" height="49" stroke="#EAEAEA" stroke-linecap="round" stroke-dasharray="5 5"/>
<rect x="250.5" y="200.5" width="49" height="49" stroke="#EAEAEA" stroke-linecap="round" stroke-dasharray="5 5"/>
<rect x="300.5" y="200.5" width="49" height="49" stroke="#EAEAEA" stroke-linecap="round" stroke-dasharray="5 5"/>
<rect x="350.5" y="200.5" width="49" height="49" stroke="#EAEAEA" stroke-linecap="round" stroke-dasharray="5 5"/>
<rect x="400.5" y="200.5" width="49" height="49" stroke="#EAEAEA" stroke-linecap="round" stroke-dasharray="5 5"/>
<rect x="450.5" y="200.5" width="49" height="49" stroke="#EAEAEA" stroke-linecap="round" stroke-dasharray="5 5"/>
<rect x="500.5" y="200.5" width="49" height="49" stroke="#EAEAEA" stroke-linecap="round" stroke-dasharray="5 5"/>
<rect x="550.5" y="200.5" width="49" height="49" stroke="#EAEAEA" stroke-linecap="round" stroke-dasharray="5 5"/>
<rect x="600.5" y="200.5" width="49" height="49" stroke="#EAEAEA" stroke-linecap="round" stroke-dasharray="5 5"/>
<rect x="650.5" y="200.5" width="49" height="49" stroke="#EAEAEA" stroke-linecap="round" stroke-dasharray="5 5"/>
<rect x="700.5" y="200.5" width="49" height="49" stroke="#EAEAEA" stroke-linecap="round" stroke-dasharray="5 5"/>
<rect x="750.5" y="200.5" width="49" height="49" stroke="#EAEAEA" stroke-linecap="round" stroke-dasharray="5 5"/>
<rect x="800.5" y="200.5" width="49" height="49" stroke="#EAEAEA" stroke-linecap="round" stroke-dasharray="5 5"/>
<rect x="850.5" y="200.5" width="49" height="49" stroke="#EAEAEA" stroke-linecap="round" stroke-dasharray="5 5"/>
<rect x="900.5" y="200.5" width="49" height="49" stroke="#EAEAEA" stroke-linecap="round" stroke-dasharray="5 5"/>
<rect x="950.5" y="200.5" width="49" height="49" stroke="#EAEAEA" stroke-linecap="round" stroke-dasharray="5 5"/>
<rect x="1000.5" y="200.5" width="49" height="49" stroke="#EAEAEA" stroke-linecap="round" stroke-dasharray="5 5"/>
<rect x="1050.5" y="200.5" width="49" height="49" stroke="#EAEAEA" stroke-linecap="round" stroke-dasharray="5 5"/>
<rect x="1100.5" y="200.5" width="49" height="49" stroke="#EAEAEA" stroke-linecap="round" stroke-dasharray="5 5"/>
<rect x="0.5" y="250.5" width="49" height="49" stroke="#EAEAEA" stroke-linecap="round" stroke-dasharray="5 5"/>
<rect x="50.5" y="250.5" width="49" height="49" stroke="#EAEAEA" stroke-linecap="round" stroke-dasharray="5 5"/>
<rect x="100.5" y="250.5" width="49" height="49" stroke="#EAEAEA" stroke-linecap="round" stroke-dasharray="5 5"/>
<rect x="150.5" y="250.5" width="49" height="49" stroke="#EAEAEA" stroke-linecap="round" stroke-dasharray="5 5"/>
<rect x="200.5" y="250.5" width="49" height="49" stroke="#EAEAEA" stroke-linecap="round" stroke-dasharray="5 5"/>
<rect x="250.5" y="250.5" width="49" height="49" stroke="#EAEAEA" stroke-linecap="round" stroke-dasharray="5 5"/>
<rect x="300.5" y="250.5" width="49" height="49" stroke="#EAEAEA" stroke-linecap="round" stroke-dasharray="5 5"/>
<rect x="350.5" y="250.5" width="49" height="49" stroke="#EAEAEA" stroke-linecap="round" stroke-dasharray="5 5"/>
<rect x="400.5" y="250.5" width="49" height="49" stroke="#EAEAEA" stroke-linecap="round" stroke-dasharray="5 5"/>
<rect x="450.5" y="250.5" width="49" height="49" stroke="#EAEAEA" stroke-linecap="round" stroke-dasharray="5 5"/>
<rect x="500.5" y="250.5" width="49" height="49" stroke="#EAEAEA" stroke-linecap="round" stroke-dasharray="5 5"/>
<rect x="550.5" y="250.5" width="49" height="49" stroke="#EAEAEA" stroke-linecap="round" stroke-dasharray="5 5"/>
<rect x="600.5" y="250.5" width="49" height="49" stroke="#EAEAEA" stroke-linecap="round" stroke-dasharray="5 5"/>
<rect x="650.5" y="250.5" width="49" height="49" stroke="#EAEAEA" stroke-linecap="round" stroke-dasharray="5 5"/>
<rect x="700.5" y="250.5" width="49" height="49" stroke="#EAEAEA" stroke-linecap="round" stroke-dasharray="5 5"/>
<rect x="750.5" y="250.5" width="49" height="49" stroke="#EAEAEA" stroke-linecap="round" stroke-dasharray="5 5"/>
<rect x="800.5" y="250.5" width="49" height="49" stroke="#EAEAEA" stroke-linecap="round" stroke-dasharray="5 5"/>
<rect x="850.5" y="250.5" width="49" height="49" stroke="#EAEAEA" stroke-linecap="round" stroke-dasharray="5 5"/>
<rect x="900.5" y="250.5" width="49" height="49" stroke="#EAEAEA" stroke-linecap="round" stroke-dasharray="5 5"/>
<rect x="950.5" y="250.5" width="49" height="49" stroke="#EAEAEA" stroke-linecap="round" stroke-dasharray="5 5"/>
<rect x="1000.5" y="250.5" width="49" height="49" stroke="#EAEAEA" stroke-linecap="round" stroke-dasharray="5 5"/>
<rect x="1050.5" y="250.5" width="49" height="49" stroke="#EAEAEA" stroke-linecap="round" stroke-dasharray="5 5"/>
<rect x="1100.5" y="250.5" width="49" height="49" stroke="#EAEAEA" stroke-linecap="round" stroke-dasharray="5 5"/>
<rect x="0.5" y="300.5" width="49" height="49" stroke="#EAEAEA" stroke-linecap="round" stroke-dasharray="5 5"/>
<rect x="50.5" y="300.5" width="49" height="49" stroke="#EAEAEA" stroke-linecap="round" stroke-dasharray="5 5"/>
<rect x="100.5" y="300.5" width="49" height="49" stroke="#EAEAEA" stroke-linecap="round" stroke-dasharray="5 5"/>
<rect x="150.5" y="300.5" width="49" height="49" stroke="#EAEAEA" stroke-linecap="round" stroke-dasharray="5 5"/>
<rect x="200.5" y="300.5" width="49" height="49" stroke="#EAEAEA" stroke-linecap="round" stroke-dasharray="5 5"/>
<rect x="250.5" y="300.5" width="49" height="49" stroke="#EAEAEA" stroke-linecap="round" stroke-dasharray="5 5"/>
<rect x="300.5" y="300.5" width="49" height="49" stroke="#EAEAEA" stroke-linecap="round" stroke-dasharray="5 5"/>
<rect x="350.5" y="300.5" width="49" height="49" stroke="#EAEAEA" stroke-linecap="round" stroke-dasharray="5 5"/>
<rect x="400.5" y="300.5" width="49" height="49" stroke="#EAEAEA" stroke-linecap="round" stroke-dasharray="5 5"/>
<rect x="450.5" y="300.5" width="49" height="49" stroke="#EAEAEA" stroke-linecap="round" stroke-dasharray="5 5"/>
<rect x="500.5" y="300.5" width="49" height="49" stroke="#EAEAEA" stroke-linecap="round" stroke-dasharray="5 5"/>
<rect x="550.5" y="300.5" width="49" height="49" stroke="#EAEAEA" stroke-linecap="round" stroke-dasharray="5 5"/>
<rect x="600.5" y="300.5" width="49" height="49" stroke="#EAEAEA" stroke-linecap="round" stroke-dasharray="5 5"/>
<rect x="650.5" y="300.5" width="49" height="49" stroke="#EAEAEA" stroke-linecap="round" stroke-dasharray="5 5"/>
<rect x="700.5" y="300.5" width="49" height="49" stroke="#EAEAEA" stroke-linecap="round" stroke-dasharray="5 5"/>
<rect x="750.5" y="300.5" width="49" height="49" stroke="#EAEAEA" stroke-linecap="round" stroke-dasharray="5 5"/>
<rect x="800.5" y="300.5" width="49" height="49" stroke="#EAEAEA" stroke-linecap="round" stroke-dasharray="5 5"/>
<rect x="850.5" y="300.5" width="49" height="49" stroke="#EAEAEA" stroke-linecap="round" stroke-dasharray="5 5"/>
<rect x="900.5" y="300.5" width="49" height="49" stroke="#EAEAEA" stroke-linecap="round" stroke-dasharray="5 5"/>
<rect x="950.5" y="300.5" width="49" height="49" stroke="#EAEAEA" stroke-linecap="round" stroke-dasharray="5 5"/>
<rect x="1000.5" y="300.5" width="49" height="49" stroke="#EAEAEA" stroke-linecap="round" stroke-dasharray="5 5"/>
<rect x="1050.5" y="300.5" width="49" height="49" stroke="#EAEAEA" stroke-linecap="round" stroke-dasharray="5 5"/>
<rect x="1100.5" y="300.5" width="49" height="49" stroke="#EAEAEA" stroke-linecap="round" stroke-dasharray="5 5"/>
<rect x="0.5" y="350.5" width="49" height="49" stroke="#EAEAEA" stroke-linecap="round" stroke-dasharray="5 5"/>
<rect x="50.5" y="350.5" width="49" height="49" stroke="#EAEAEA" stroke-linecap="round" stroke-dasharray="5 5"/>
<rect x="100.5" y="350.5" width="49" height="49" stroke="#EAEAEA" stroke-linecap="round" stroke-dasharray="5 5"/>
<rect x="150.5" y="350.5" width="49" height="49" stroke="#EAEAEA" stroke-linecap="round" stroke-dasharray="5 5"/>
<rect x="200.5" y="350.5" width="49" height="49" stroke="#EAEAEA" stroke-linecap="round" stroke-dasharray="5 5"/>
<rect x="250.5" y="350.5" width="49" height="49" stroke="#EAEAEA" stroke-linecap="round" stroke-dasharray="5 5"/>
<rect x="300.5" y="350.5" width="49" height="49" stroke="#EAEAEA" stroke-linecap="round" stroke-dasharray="5 5"/>
<rect x="350.5" y="350.5" width="49" height="49" stroke="#EAEAEA" stroke-linecap="round" stroke-dasharray="5 5"/>
<rect x="400.5" y="350.5" width="49" height="49" stroke="#EAEAEA" stroke-linecap="round" stroke-dasharray="5 5"/>
<rect x="450.5" y="350.5" width="49" height="49" stroke="#EAEAEA" stroke-linecap="round" stroke-dasharray="5 5"/>
<rect x="500.5" y="350.5" width="49" height="49" stroke="#EAEAEA" stroke-linecap="round" stroke-dasharray="5 5"/>
<rect x="550.5" y="350.5" width="49" height="49" stroke="#EAEAEA" stroke-linecap="round" stroke-dasharray="5 5"/>
<rect x="600.5" y="350.5" width="49" height="49" stroke="#EAEAEA" stroke-linecap="round" stroke-dasharray="5 5"/>
<rect x="650.5" y="350.5" width="49" height="49" stroke="#EAEAEA" stroke-linecap="round" stroke-dasharray="5 5"/>
<rect x="700.5" y="350.5" width="49" height="49" stroke="#EAEAEA" stroke-linecap="round" stroke-dasharray="5 5"/>
<rect x="750.5" y="350.5" width="49" height="49" stroke="#EAEAEA" stroke-linecap="round" stroke-dasharray="5 5"/>
<rect x="800.5" y="350.5" width="49" height="49" stroke="#EAEAEA" stroke-linecap="round" stroke-dasharray="5 5"/>
<rect x="850.5" y="350.5" width="49" height="49" stroke="#EAEAEA" stroke-linecap="round" stroke-dasharray="5 5"/>
<rect x="900.5" y="350.5" width="49" height="49" stroke="#EAEAEA" stroke-linecap="round" stroke-dasharray="5 5"/>
<rect x="950.5" y="350.5" width="49" height="49" stroke="#EAEAEA" stroke-linecap="round" stroke-dasharray="5 5"/>
<rect x="1000.5" y="350.5" width="49" height="49" stroke="#EAEAEA" stroke-linecap="round" stroke-dasharray="5 5"/>
<rect x="1050.5" y="350.5" width="49" height="49" stroke="#EAEAEA" stroke-linecap="round" stroke-dasharray="5 5"/>
<rect x="1100.5" y="350.5" width="49" height="49" stroke="#EAEAEA" stroke-linecap="round" stroke-dasharray="5 5"/>
<rect x="0.5" y="400.5" width="49" height="49" stroke="#EAEAEA" stroke-linecap="round" stroke-dasharray="5 5"/>
<rect x="50.5" y="400.5" width="49" height="49" stroke="#EAEAEA" stroke-linecap="round" stroke-dasharray="5 5"/>
<rect x="100.5" y="400.5" width="49" height="49" stroke="#EAEAEA" stroke-linecap="round" stroke-dasharray="5 5"/>
<rect x="150.5" y="400.5" width="49" height="49" stroke="#EAEAEA" stroke-linecap="round" stroke-dasharray="5 5"/>
<rect x="200.5" y="400.5" width="49" height="49" stroke="#EAEAEA" stroke-linecap="round" stroke-dasharray="5 5"/>
<rect x="250.5" y="400.5" width="49" height="49" stroke="#EAEAEA" stroke-linecap="round" stroke-dasharray="5 5"/>
<rect x="300.5" y="400.5" width="49" height="49" stroke="#EAEAEA" stroke-linecap="round" stroke-dasharray="5 5"/>
<rect x="350.5" y="400.5" width="49" height="49" stroke="#EAEAEA" stroke-linecap="round" stroke-dasharray="5 5"/>
<rect x="400.5" y="400.5" width="49" height="49" stroke="#EAEAEA" stroke-linecap="round" stroke-dasharray="5 5"/>
<rect x="450.5" y="400.5" width="49" height="49" stroke="#EAEAEA" stroke-linecap="round" stroke-dasharray="5 5"/>
<rect x="500.5" y="400.5" width="49" height="49" stroke="#EAEAEA" stroke-linecap="round" stroke-dasharray="5 5"/>
<rect x="550.5" y="400.5" width="49" height="49" stroke="#EAEAEA" stroke-linecap="round" stroke-dasharray="5 5"/>
<rect x="600.5" y="400.5" width="49" height="49" stroke="#EAEAEA" stroke-linecap="round" stroke-dasharray="5 5"/>
<rect x="650.5" y="400.5" width="49" height="49" stroke="#EAEAEA" stroke-linecap="round" stroke-dasharray="5 5"/>
<rect x="700.5" y="400.5" width="49" height="49" stroke="#EAEAEA" stroke-linecap="round" stroke-dasharray="5 5"/>
<rect x="750.5" y="400.5" width="49" height="49" stroke="#EAEAEA" stroke-linecap="round" stroke-dasharray="5 5"/>
<rect x="800.5" y="400.5" width="49" height="49" stroke="#EAEAEA" stroke-linecap="round" stroke-dasharray="5 5"/>
<rect x="850.5" y="400.5" width="49" height="49" stroke="#EAEAEA" stroke-linecap="round" stroke-dasharray="5 5"/>
<rect x="900.5" y="400.5" width="49" height="49" stroke="#EAEAEA" stroke-linecap="round" stroke-dasharray="5 5"/>
<rect x="950.5" y="400.5" width="49" height="49" stroke="#EAEAEA" stroke-linecap="round" stroke-dasharray="5 5"/>
<rect x="1000.5" y="400.5" width="49" height="49" stroke="#EAEAEA" stroke-linecap="round" stroke-dasharray="5 5"/>
<rect x="1050.5" y="400.5" width="49" height="49" stroke="#EAEAEA" stroke-linecap="round" stroke-dasharray="5 5"/>
<rect x="1100.5" y="400.5" width="49" height="49" stroke="#EAEAEA" stroke-linecap="round" stroke-dasharray="5 5"/>
<rect x="0.5" y="450.5" width="49" height="49" stroke="#EAEAEA" stroke-linecap="round" stroke-dasharray="5 5"/>
<rect x="50.5" y="450.5" width="49" height="49" stroke="#EAEAEA" stroke-linecap="round" stroke-dasharray="5 5"/>
<rect x="100.5" y="450.5" width="49" height="49" stroke="#EAEAEA" stroke-linecap="round" stroke-dasharray="5 5"/>
<rect x="150.5" y="450.5" width="49" height="49" stroke="#EAEAEA" stroke-linecap="round" stroke-dasharray="5 5"/>
<rect x="200.5" y="450.5" width="49" height="49" stroke="#EAEAEA" stroke-linecap="round" stroke-dasharray="5 5"/>
<rect x="250.5" y="450.5" width="49" height="49" stroke="#EAEAEA" stroke-linecap="round" stroke-dasharray="5 5"/>
<rect x="300.5" y="450.5" width="49" height="49" stroke="#EAEAEA" stroke-linecap="round" stroke-dasharray="5 5"/>
<rect x="350.5" y="450.5" width="49" height="49" stroke="#EAEAEA" stroke-linecap="round" stroke-dasharray="5 5"/>
<rect x="400.5" y="450.5" width="49" height="49" stroke="#EAEAEA" stroke-linecap="round" stroke-dasharray="5 5"/>
<rect x="450.5" y="450.5" width="49" height="49" stroke="#EAEAEA" stroke-linecap="round" stroke-dasharray="5 5"/>
<rect x="500.5" y="450.5" width="49" height="49" stroke="#EAEAEA" stroke-linecap="round" stroke-dasharray="5 5"/>
<rect x="550.5" y="450.5" width="49" height="49" stroke="#EAEAEA" stroke-linecap="round" stroke-dasharray="5 5"/>
<rect x="600.5" y="450.5" width="49" height="49" stroke="#EAEAEA" stroke-linecap="round" stroke-dasharray="5 5"/>
<rect x="650.5" y="450.5" width="49" height="49" stroke="#EAEAEA" stroke-linecap="round" stroke-dasharray="5 5"/>
<rect x="700.5" y="450.5" width="49" height="49" stroke="#EAEAEA" stroke-linecap="round" stroke-dasharray="5 5"/>
<rect x="750.5" y="450.5" width="49" height="49" stroke="#EAEAEA" stroke-linecap="round" stroke-dasharray="5 5"/>
<rect x="800.5" y="450.5" width="49" height="49" stroke="#EAEAEA" stroke-linecap="round" stroke-dasharray="5 5"/>
<rect x="850.5" y="450.5" width="49" height="49" stroke="#EAEAEA" stroke-linecap="round" stroke-dasharray="5 5"/>
<rect x="900.5" y="450.5" width="49" height="49" stroke="#EAEAEA" stroke-linecap="round" stroke-dasharray="5 5"/>
<rect x="950.5" y="450.5" width="49" height="49" stroke="#EAEAEA" stroke-linecap="round" stroke-dasharray="5 5"/>
<rect x="1000.5" y="450.5" width="49" height="49" stroke="#EAEAEA" stroke-linecap="round" stroke-dasharray="5 5"/>
<rect x="1050.5" y="450.5" width="49" height="49" stroke="#EAEAEA" stroke-linecap="round" stroke-dasharray="5 5"/>
<rect x="1100.5" y="450.5" width="49" height="49" stroke="#EAEAEA" stroke-linecap="round" stroke-dasharray="5 5"/>
<rect x="0.5" y="500.5" width="49" height="49" stroke="#EAEAEA" stroke-linecap="round" stroke-dasharray="5 5"/>
<rect x="50.5" y="500.5" width="49" height="49" stroke="#EAEAEA" stroke-linecap="round" stroke-dasharray="5 5"/>
<rect x="100.5" y="500.5" width="49" height="49" stroke="#EAEAEA" stroke-linecap="round" stroke-dasharray="5 5"/>
<rect x="150.5" y="500.5" width="49" height="49" stroke="#EAEAEA" stroke-linecap="round" stroke-dasharray="5 5"/>
<rect x="200.5" y="500.5" width="49" height="49" stroke="#EAEAEA" stroke-linecap="round" stroke-dasharray="5 5"/>
<rect x="250.5" y="500.5" width="49" height="49" stroke="#EAEAEA" stroke-linecap="round" stroke-dasharray="5 5"/>
<rect x="300.5" y="500.5" width="49" height="49" stroke="#EAEAEA" stroke-linecap="round" stroke-dasharray="5 5"/>
<rect x="350.5" y="500.5" width="49" height="49" stroke="#EAEAEA" stroke-linecap="round" stroke-dasharray="5 5"/>
<rect x="400.5" y="500.5" width="49" height="49" stroke="#EAEAEA" stroke-linecap="round" stroke-dasharray="5 5"/>
<rect x="450.5" y="500.5" width="49" height="49" stroke="#EAEAEA" stroke-linecap="round" stroke-dasharray="5 5"/>
<rect x="500.5" y="500.5" width="49" height="49" stroke="#EAEAEA" stroke-linecap="round" stroke-dasharray="5 5"/>
<rect x="550.5" y="500.5" width="49" height="49" stroke="#EAEAEA" stroke-linecap="round" stroke-dasharray="5 5"/>
<rect x="600.5" y="500.5" width="49" height="49" stroke="#EAEAEA" stroke-linecap="round" stroke-dasharray="5 5"/>
<rect x="650.5" y="500.5" width="49" height="49" stroke="#EAEAEA" stroke-linecap="round" stroke-dasharray="5 5"/>
<rect x="700.5" y="500.5" width="49" height="49" stroke="#EAEAEA" stroke-linecap="round" stroke-dasharray="5 5"/>
<rect x="750.5" y="500.5" width="49" height="49" stroke="#EAEAEA" stroke-linecap="round" stroke-dasharray="5 5"/>
<rect x="800.5" y="500.5" width="49" height="49" stroke="#EAEAEA" stroke-linecap="round" stroke-dasharray="5 5"/>
<rect x="850.5" y="500.5" width="49" height="49" stroke="#EAEAEA" stroke-linecap="round" stroke-dasharray="5 5"/>
<rect x="900.5" y="500.5" width="49" height="49" stroke="#EAEAEA" stroke-linecap="round" stroke-dasharray="5 5"/>
<rect x="950.5" y="500.5" width="49" height="49" stroke="#EAEAEA" stroke-linecap="round" stroke-dasharray="5 5"/>
<rect x="1000.5" y="500.5" width="49" height="49" stroke="#EAEAEA" stroke-linecap="round" stroke-dasharray="5 5"/>
<rect x="1050.5" y="500.5" width="49" height="49" stroke="#EAEAEA" stroke-linecap="round" stroke-dasharray="5 5"/>
<rect x="1100.5" y="500.5" width="49" height="49" stroke="#EAEAEA" stroke-linecap="round" stroke-dasharray="5 5"/>
<rect x="0.5" y="550.5" width="49" height="49" stroke="#EAEAEA" stroke-linecap="round" stroke-dasharray="5 5"/>
<rect x="50.5" y="550.5" width="49" height="49" stroke="#EAEAEA" stroke-linecap="round" stroke-dasharray="5 5"/>
<rect x="100.5" y="550.5" width="49" height="49" stroke="#EAEAEA" stroke-linecap="round" stroke-dasharray="5 5"/>
<rect x="150.5" y="550.5" width="49" height="49" stroke="#EAEAEA" stroke-linecap="round" stroke-dasharray="5 5"/>
<rect x="200.5" y="550.5" width="49" height="49" stroke="#EAEAEA" stroke-linecap="round" stroke-dasharray="5 5"/>
<rect x="250.5" y="550.5" width="49" height="49" stroke="#EAEAEA" stroke-linecap="round" stroke-dasharray="5 5"/>
<rect x="300.5" y="550.5" width="49" height="49" stroke="#EAEAEA" stroke-linecap="round" stroke-dasharray="5 5"/>
<rect x="350.5" y="550.5" width="49" height="49" stroke="#EAEAEA" stroke-linecap="round" stroke-dasharray="5 5"/>
<rect x="400.5" y="550.5" width="49" height="49" stroke="#EAEAEA" stroke-linecap="round" stroke-dasharray="5 5"/>
<rect x="450.5" y="550.5" width="49" height="49" stroke="#EAEAEA" stroke-linecap="round" stroke-dasharray="5 5"/>
<rect x="500.5" y="550.5" width="49" height="49" stroke="#EAEAEA" stroke-linecap="round" stroke-dasharray="5 5"/>
<rect x="550.5" y="550.5" width="49" height="49" stroke="#EAEAEA" stroke-linecap="round" stroke-dasharray="5 5"/>
<rect x="600.5" y="550.5" width="49" height="49" stroke="#EAEAEA" stroke-linecap="round" stroke-dasharray="5 5"/>
<rect x="650.5" y="550.5" width="49" height="49" stroke="#EAEAEA" stroke-linecap="round" stroke-dasharray="5 5"/>
<rect x="700.5" y="550.5" width="49" height="49" stroke="#EAEAEA" stroke-linecap="round" stroke-dasharray="5 5"/>
<rect x="750.5" y="550.5" width="49" height="49" stroke="#EAEAEA" stroke-linecap="round" stroke-dasharray="5 5"/>
<rect x="800.5" y="550.5" width="49" height="49" stroke="#EAEAEA" stroke-linecap="round" stroke-dasharray="5 5"/>
<rect x="850.5" y="550.5" width="49" height="49" stroke="#EAEAEA" stroke-linecap="round" stroke-dasharray="5 5"/>
<rect x="900.5" y="550.5" width="49" height="49" stroke="#EAEAEA" stroke-linecap="round" stroke-dasharray="5 5"/>
<rect x="950.5" y="550.5" width="49" height="49" stroke="#EAEAEA" stroke-linecap="round" stroke-dasharray="5 5"/>
<rect x="1000.5" y="550.5" width="49" height="49" stroke="#EAEAEA" stroke-linecap="round" stroke-dasharray="5 5"/>
<rect x="1050.5" y="550.5" width="49" height="49" stroke="#EAEAEA" stroke-linecap="round" stroke-dasharray="5 5"/>
<rect x="1100.5" y="550.5" width="49" height="49" stroke="#EAEAEA" stroke-linecap="round" stroke-dasharray="5 5"/>
<rect x="0.5" y="600.5" width="49" height="49" stroke="#EAEAEA" stroke-linecap="round" stroke-dasharray="5 5"/>
<rect x="50.5" y="600.5" width="49" height="49" stroke="#EAEAEA" stroke-linecap="round" stroke-dasharray="5 5"/>
<rect x="100.5" y="600.5" width="49" height="49" stroke="#EAEAEA" stroke-linecap="round" stroke-dasharray="5 5"/>
<rect x="150.5" y="600.5" width="49" height="49" stroke="#EAEAEA" stroke-linecap="round" stroke-dasharray="5 5"/>
<rect x="200.5" y="600.5" width="49" height="49" stroke="#EAEAEA" stroke-linecap="round" stroke-dasharray="5 5"/>
<rect x="250.5" y="600.5" width="49" height="49" stroke="#EAEAEA" stroke-linecap="round" stroke-dasharray="5 5"/>
<rect x="300.5" y="600.5" width="49" height="49" stroke="#EAEAEA" stroke-linecap="round" stroke-dasharray="5 5"/>
<rect x="350.5" y="600.5" width="49" height="49" stroke="#EAEAEA" stroke-linecap="round" stroke-dasharray="5 5"/>
<rect x="400.5" y="600.5" width="49" height="49" stroke="#EAEAEA" stroke-linecap="round" stroke-dasharray="5 5"/>
<rect x="450.5" y="600.5" width="49" height="49" stroke="#EAEAEA" stroke-linecap="round" stroke-dasharray="5 5"/>
<rect x="500.5" y="600.5" width="49" height="49" stroke="#EAEAEA" stroke-linecap="round" stroke-dasharray="5 5"/>
<rect x="550.5" y="600.5" width="49" height="49" stroke="#EAEAEA" stroke-linecap="round" stroke-dasharray="5 5"/>
<rect x="600.5" y="600.5" width="49" height="49" stroke="#EAEAEA" stroke-linecap="round" stroke-dasharray="5 5"/>
<rect x="650.5" y="600.5" width="49" height="49" stroke="#EAEAEA" stroke-linecap="round" stroke-dasharray="5 5"/>
<rect x="700.5" y="600.5" width="49" height="49" stroke="#EAEAEA" stroke-linecap="round" stroke-dasharray="5 5"/>
<rect x="750.5" y="600.5" width="49" height="49" stroke="#EAEAEA" stroke-linecap="round" stroke-dasharray="5 5"/>
<rect x="800.5" y="600.5" width="49" height="49" stroke="#EAEAEA" stroke-linecap="round" stroke-dasharray="5 5"/>
<rect x="850.5" y="600.5" width="49" height="49" stroke="#EAEAEA" stroke-linecap="round" stroke-dasharray="5 5"/>
<rect x="900.5" y="600.5" width="49" height="49" stroke="#EAEAEA" stroke-linecap="round" stroke-dasharray="5 5"/>
<rect x="950.5" y="600.5" width="49" height="49" stroke="#EAEAEA" stroke-linecap="round" stroke-dasharray="5 5"/>
<rect x="1000.5" y="600.5" width="49" height="49" stroke="#EAEAEA" stroke-linecap="round" stroke-dasharray="5 5"/>
<rect x="1050.5" y="600.5" width="49" height="49" stroke="#EAEAEA" stroke-linecap="round" stroke-dasharray="5 5"/>
<rect x="1100.5" y="600.5" width="49" height="49" stroke="#EAEAEA" stroke-linecap="round" stroke-dasharray="5 5"/>
<rect x="0.5" y="650.5" width="49" height="49" stroke="#EAEAEA" stroke-linecap="round" stroke-dasharray="5 5"/>
<rect x="50.5" y="650.5" width="49" height="49" stroke="#EAEAEA" stroke-linecap="round" stroke-dasharray="5 5"/>
<rect x="100.5" y="650.5" width="49" height="49" stroke="#EAEAEA" stroke-linecap="round" stroke-dasharray="5 5"/>
<rect x="150.5" y="650.5" width="49" height="49" stroke="#EAEAEA" stroke-linecap="round" stroke-dasharray="5 5"/>
<rect x="200.5" y="650.5" width="49" height="49" stroke="#EAEAEA" stroke-linecap="round" stroke-dasharray="5 5"/>
<rect x="250.5" y="650.5" width="49" height="49" stroke="#EAEAEA" stroke-linecap="round" stroke-dasharray="5 5"/>
<rect x="300.5" y="650.5" width="49" height="49" stroke="#EAEAEA" stroke-linecap="round" stroke-dasharray="5 5"/>
<rect x="350.5" y="650.5" width="49" height="49" stroke="#EAEAEA" stroke-linecap="round" stroke-dasharray="5 5"/>
<rect x="400.5" y="650.5" width="49" height="49" stroke="#EAEAEA" stroke-linecap="round" stroke-dasharray="5 5"/>
<rect x="450.5" y="650.5" width="49" height="49" stroke="#EAEAEA" stroke-linecap="round" stroke-dasharray="5 5"/>
<rect x="500.5" y="650.5" width="49" height="49" stroke="#EAEAEA" stroke-linecap="round" stroke-dasharray="5 5"/>
<rect x="550.5" y="650.5" width="49" height="49" stroke="#EAEAEA" stroke-linecap="round" stroke-dasharray="5 5"/>
<rect x="600.5" y="650.5" width="49" height="49" stroke="#EAEAEA" stroke-linecap="round" stroke-dasharray="5 5"/>
<rect x="650.5" y="650.5" width="49" height="49" stroke="#EAEAEA" stroke-linecap="round" stroke-dasharray="5 5"/>
<rect x="700.5" y="650.5" width="49" height="49" stroke="#EAEAEA" stroke-linecap="round" stroke-dasharray="5 5"/>
<rect x="750.5" y="650.5" width="49" height="49" stroke="#EAEAEA" stroke-linecap="round" stroke-dasharray="5 5"/>
<rect x="800.5" y="650.5" width="49" height="49" stroke="#EAEAEA" stroke-linecap="round" stroke-dasharray="5 5"/>
<rect x="850.5" y="650.5" width="49" height="49" stroke="#EAEAEA" stroke-linecap="round" stroke-dasharray="5 5"/>
<rect x="900.5" y="650.5" width="49" height="49" stroke="#EAEAEA" stroke-linecap="round" stroke-dasharray="5 5"/>
<rect x="950.5" y="650.5" width="49" height="49" stroke="#EAEAEA" stroke-linecap="round" stroke-dasharray="5 5"/>
<rect x="1000.5" y="650.5" width="49" height="49" stroke="#EAEAEA" stroke-linecap="round" stroke-dasharray="5 5"/>
<rect x="1050.5" y="650.5" width="49" height="49" stroke="#EAEAEA" stroke-linecap="round" stroke-dasharray="5 5"/>
<rect x="1100.5" y="650.5" width="49" height="49" stroke="#EAEAEA" stroke-linecap="round" stroke-dasharray="5 5"/>
</svg>
